<svg width="173" height="173" xmlns="http://www.w3.org/2000/svg" xmlns:xlink="http://www.w3.org/1999/xlink">
    <defs>
        <path id="a" d="M.48.072h11.504v12.734H.481z"/>
        <path id="c" d="M0 .43h13.159v3.738H0z"/>
    </defs>
    <g transform="translate(0 -1)" fill="none" fill-rule="evenodd">
        <circle fill="#5D6B45" cx="87.5" cy="87.5" r="28.5"/>
        <g transform="translate(87 1.31)">
            <mask id="b" fill="#fff">
                <use xlink:href="#a"/>
            </mask>
            <path d="M5.746 10.57c1.05.089 1.871-.163 2.47-.755.596-.594.943-1.474 1.04-2.642l.046-.537c.098-1.168-.096-2.095-.587-2.779-.489-.683-1.258-1.07-2.307-1.157l-2.486-.21-.663 7.872 2.487.208zM1.514.07 6.593.5c1.872.157 3.275.788 4.209 1.895.935 1.104 1.315 2.683 1.142 4.735-.171 2.05-.81 3.543-1.915 4.477-1.105.935-2.595 1.323-4.468 1.165l-5.08-.428L1.514.071z" fill="#5D6B45" mask="url(#b)"/>
        </g>
        <path d="m102.03 5.813 2.052.445-.13 1.534.122.025c.313-.482.661-.84 1.042-1.077.383-.236.83-.298 1.345-.186.223.048.415.11.575.189.16.077.261.134.304.167l-.488 2.245-.665-.145c-.785-.17-1.398-.078-1.841.272-.445.351-.76.959-.947 1.825l-.967 4.456-2.403-.52 2.001-9.23zM106.335 13.975l2.382.682-.678 2.364-2.381-.682zM119.057 10.717l1.862.972-.416 1.182.112.058c1.063-.537 2.084-.552 3.06-.041 1.06.555 1.568 1.367 1.52 2.436l.13.067c1.084-.527 2.137-.523 3.155.009.795.415 1.307.98 1.535 1.693.228.714.072 1.585-.464 2.614l-2.936 5.616-2.18-1.14 2.694-5.154c.516-.986.365-1.693-.45-2.121-.426-.221-.865-.232-1.322-.03-.457.198-.816.554-1.084 1.063l-2.527 4.836-2.18-1.14 2.695-5.153c.515-.986.365-1.693-.451-2.12-.424-.222-.868-.233-1.329-.037-.461.199-.824.552-1.09 1.062l-2.53 4.836-2.179-1.14 4.375-8.368zM136.068 25.361c.789-1.037.752-1.886-.116-2.546-.494-.376-.966-.532-1.414-.467-.45.065-.902.338-1.356.817l2.886 2.196zm-6.91.767c-.11-1.091.347-2.308 1.367-3.652 1.023-1.343 2.073-2.107 3.156-2.292 1.08-.185 2.224.182 3.434 1.103 1.114.847 1.703 1.803 1.768 2.866.062 1.063-.413 2.262-1.427 3.596l-.348.457-4.944-3.762c-.489.682-.729 1.276-.726 1.784.005.507.298.982.88 1.424.41.312.828.449 1.254.413.426-.037.8-.264 1.118-.683l1.928 1.466c-.717.943-1.56 1.418-2.529 1.427-.968.007-1.952-.37-2.95-1.13-1.212-.921-1.872-1.926-1.981-3.017zM143.15 33.486l.201-.201c1.264-1.262 1.42-2.366.473-3.314-.517-.517-1.04-.731-1.568-.643-.529.09-1.106.446-1.733 1.073l-.228.228c-.627.627-.984 1.204-1.074 1.733-.088.528.124 1.051.64 1.568.948.948 2.045.8 3.289-.444m-6.455-1.443c.115-1.045.76-2.154 1.938-3.33 1.15-1.15 2.252-1.783 3.307-1.898 1.054-.113 1.97.218 2.747.998.449.45.763.926.946 1.428.182.504.222 1 .12 1.492l.076.077 3.275-3.275 1.74 1.74-9.181 9.175-1.485-1.486.76-.99-.087-.089c-.55.127-1.09.1-1.619-.083a3.773 3.773 0 0 1-1.44-.92c-.845-.849-1.211-1.793-1.097-2.839M144.946 38.654l1.562 1.924-1.91 1.55-1.562-1.924zM153.94 44.311c1.87-1.021 3.517-1.33 4.946-.923 1.43.404 2.598 1.437 3.504 3.096.5.914.794 1.821.884 2.719a4.378 4.378 0 0 1-.471 2.508c-.404.773-1.062 1.41-1.975 1.908l-1.283-2.346c.703-.385 1.134-.914 1.291-1.586.158-.673.037-1.372-.357-2.096-.54-.987-1.236-1.562-2.087-1.723-.854-.162-1.831.06-2.933.661l-.473.258c-2.28 1.246-2.884 2.847-1.817 4.8.42.766.953 1.268 1.603 1.507.648.24 1.325.165 2.028-.22l1.24 2.27c-.924.505-1.813.718-2.668.64-.855-.078-1.634-.396-2.34-.951-.707-.555-1.314-1.3-1.825-2.234-1.906-3.487-.996-6.25 2.733-8.288M166.778 54.402l.83 2.314-4.36 1.563.043.12c1.064.379 1.787 1.098 2.166 2.159.327.911.335 1.72.027 2.42-.306.702-1.008 1.25-2.1 1.64l-5.966 2.138-.83-2.315 5.476-1.962c.552-.198.906-.471 1.06-.82.156-.347.143-.775-.04-1.282a1.807 1.807 0 0 0-1.012-1.095c-.49-.213-1.004-.222-1.544-.028l-5.138 1.841-.83-2.316 12.218-4.377zM167.115 66.753l.471 2.047-1.443.534.028.123c.57.078 1.044.24 1.42.485.375.244.622.624.74 1.136a2.607 2.607 0 0 1 .052.946l-2.24.515-.152-.664c-.18-.781-.523-1.298-1.03-1.55-.507-.253-1.19-.278-2.053-.08l-4.444 1.023-.551-2.4 9.202-2.115zM172.139 73.572l.362 2.433-2.202.327-.363-2.433 2.203-.327zm-3.498.52.362 2.434-9.341 1.39-.362-2.433 9.34-1.39zM160.634 80.745c.506-.775 1.213-1.185 2.121-1.232l.216.007.121 2.385-.125.007c-.416.033-.709.237-.876.61-.166.374-.236.825-.21 1.35.026.49.112.905.263 1.245.147.34.371.503.67.488.335-.017.578-.208.726-.568.15-.36.288-.922.418-1.683.14-.788.289-1.43.449-1.93.162-.5.43-.937.805-1.317.377-.378.894-.586 1.55-.619.92-.045 1.65.304 2.186 1.05.534.744.832 1.727.894 2.945.058 1.137-.124 2.086-.546 2.85-.422.766-1.028 1.169-1.816 1.209l-.413.003-.123-2.385.037-.003c.345-.029.598-.19.757-.487.159-.296.225-.688.2-1.18-.025-.489-.11-.875-.257-1.154-.146-.28-.34-.413-.577-.402-.3.015-.512.19-.638.526-.127.337-.243.873-.35 1.609-.139.81-.284 1.472-.439 1.983a3.213 3.213 0 0 1-.812 1.353c-.386.391-.926.605-1.62.64-2.032.103-3.122-1.285-3.27-4.164-.064-1.316.154-2.36.66-3.136M160.745 90.441c.497-.357 1.111-.518 1.84-.48l5.109.263.058-1.13 2.008.104-.061 1.182 2.633.55-.103 1.99-2.653-.137-.084 1.633-2.008-.104.084-1.632-4.858-.25c-.514-.026-.786.218-.81.732l-.045.86-1.72-.09a5.58 5.58 0 0 1-.16-.77 4.53 4.53 0 0 1-.046-.857c.045-.885.319-1.506.816-1.864M172.76 97.13l-.3 2.442-2.209-.274.3-2.44 2.21.272zm-3.51-.432-.3 2.44-9.372-1.154.3-2.44 9.372 1.154zM168.549 102.303l-.472 2.046-1.247-.103-.03.123c.774.963 1.027 2.029.757 3.196-.218.944-.646 1.628-1.282 2.053-.638.424-1.524.506-2.655.245l-6.175-1.424.55-2.396 5.67 1.305c.571.133 1.016.094 1.335-.116.318-.208.537-.576.659-1.1.123-.536.037-1.027-.26-1.47-.298-.442-.726-.728-1.286-.857l-5.318-1.227.553-2.396 9.201 2.121zM160.238 117.644c1.22.464 2.023.186 2.41-.832.222-.581.238-1.078.048-1.49-.188-.411-.579-.766-1.167-1.067l-1.291 3.389zm-2.688-6.412c1.015-.413 2.312-.32 3.89.28 1.576.6 2.606 1.392 3.088 2.377.485.983.457 2.186-.084 3.607-.498 1.309-1.248 2.143-2.25 2.505-1.003.362-2.286.244-3.852-.352l-.538-.203 2.21-5.806c-.791-.277-1.43-.34-1.915-.192-.485.148-.858.564-1.118 1.246-.182.48-.197.921-.041 1.319.156.399.48.692.97.88l-.86 2.264c-1.107-.421-1.802-1.095-2.083-2.022-.282-.926-.2-1.977.248-3.15.542-1.422 1.319-2.34 2.335-2.753zM153.433 132.496c-.308.47-.417.912-.33 1.328.087.414.35.765.79 1.052.441.289.865.386 1.269.293.404-.095.76-.377 1.067-.848l2.022-3.097-2.795-1.824-2.023 3.096zm8.09-2.244-3.573 5.472c-.751 1.152-1.6 1.834-2.547 2.045-.946.213-1.929-.015-2.95-.683-1.444-.942-2.014-2.171-1.71-3.689l-5.567-.633 1.54-2.36 5.036.694 1.884-2.887-3.85-2.512 1.425-2.18 10.311 6.733zM142.853 138.792c.076.499.355.964.837 1.395l.215.189c1.424-1.6 1.779-2.718 1.064-3.354-.224-.2-.468-.285-.734-.257-.265.029-.534.195-.803.5-.462.518-.656 1.027-.579 1.527m1.41-4.514c.69-.202 1.413.033 2.164.7.902.804 1.214 1.745.933 2.827-.28 1.08-1.026 2.299-2.234 3.66l.496.44c.312.279.614.424.909.436.292.013.61-.174.954-.558.364-.411.563-.76.592-1.045.03-.286-.04-.504-.21-.655l-.201-.18 1.577-1.77c.06.039.163.122.306.25.59.525.83 1.209.723 2.048-.108.843-.547 1.697-1.32 2.565-.858.965-1.698 1.512-2.517 1.639-.819.128-1.599-.137-2.342-.798l-3.11-2.77c-.163-.141-.32-.204-.475-.18a.659.659 0 0 0-.413.233l-.334.376-1.287-1.146c.112-.415.354-.832.728-1.25.327-.367.68-.602 1.059-.704a1.62 1.62 0 0 1 1.131.105l.072-.08a3.53 3.53 0 0 1 .102-1.506c.144-.475.453-.98.93-1.517a3.719 3.719 0 0 1 1.767-1.12M137.368 141.805c.605.095 1.155.413 1.646.951l3.45 3.78.837-.762 1.355 1.484-.875.798 1.486 2.24-1.472 1.345-1.79-1.962-1.208 1.1-1.355-1.484 1.207-1.1-3.28-3.595c-.347-.378-.712-.396-1.092-.048l-.635.58-1.163-1.272c.103-.19.246-.41.431-.66.185-.25.374-.464.57-.641.652-.598 1.283-.848 1.888-.754M140.999 155.301l-1.986 1.45-2.732-3.74-.1.074c-.067 1.128-.553 2.025-1.462 2.689-.782.57-1.554.808-2.315.71-.758-.097-1.482-.615-2.166-1.553l-3.737-5.119 1.988-1.448 3.429 4.698c.346.473.708.734 1.085.785.377.05.783-.083 1.22-.4.443-.325.7-.753.763-1.282.066-.529-.069-1.026-.409-1.49l-3.217-4.408 1.987-1.45 7.652 10.484zM112.325 161.126a2.399 2.399 0 0 1 1.808 1.612 2.448 2.448 0 0 1-.474 2.382c-.28.327-.632.56-1.052.7-.42.14-.841.166-1.264.073a2.52 2.52 0 0 1-1.122-.562 2.325 2.325 0 0 1-.703-1.052 2.334 2.334 0 0 1-.072-1.264c.092-.422.28-.794.563-1.114a2.379 2.379 0 0 1 1.057-.693c.42-.141.84-.168 1.26-.082M81.928 163.528c-1.051-.065-1.869.204-2.451.812-.583.605-.91 1.493-.982 2.664l-.033.537c-.073 1.171.145 2.092.649 2.765.504.674 1.283 1.04 2.332 1.106l2.491.152.485-7.884-2.491-.152zm4.469 10.4-5.088-.312c-1.876-.115-3.293-.716-4.252-1.8-.96-1.084-1.374-2.652-1.25-4.707.128-2.056.734-3.562 1.816-4.521 1.085-.957 2.565-1.38 4.44-1.265l5.089.313-.755 12.292zM72.775 169.803l-2.062-.4.096-1.533-.123-.025c-.301.49-.642.857-1.018 1.102-.376.244-.823.315-1.34.215a2.537 2.537 0 0 1-.885-.335l.435-2.257.67.13c.789.152 1.399.048 1.835-.314.435-.359.736-.976.905-1.845l.864-4.477 2.416.467-1.793 9.272zM68.272 161.736l-2.396-.629.624-2.38 2.396.63zM55.652 165.292l-1.882-.93.387-1.191-.112-.056c-1.053.563-2.072.598-3.06.11-1.072-.53-1.598-1.329-1.576-2.4l-.129-.063c-1.074.55-2.125.572-3.155.062-.804-.396-1.329-.95-1.573-1.658-.244-.707-.11-1.583.405-2.624l2.807-5.681 2.205 1.09-2.576 5.214c-.495.998-.328 1.701.5 2.11.428.211.868.213 1.32.001.451-.21.803-.573 1.059-1.09l2.417-4.892 2.205 1.091-2.577 5.215c-.492.998-.326 1.7.5 2.108.43.213.873.214 1.328.006.458-.209.812-.57 1.068-1.086l2.418-4.892 2.204 1.09-4.183 8.466zM38.301 151.026c-.766 1.057-.71 1.905.173 2.544.503.365.979.511 1.425.435.446-.074.892-.357 1.337-.848l-2.935-2.13zm6.891-.92c.134 1.088-.294 2.315-1.285 3.681-.992 1.366-2.025 2.154-3.102 2.363-1.076.208-2.23-.133-3.46-1.025-1.133-.823-1.743-1.766-1.83-2.827-.087-1.062.361-2.27 1.346-3.626l.337-.464 5.027 3.648c.473-.691.701-1.292.685-1.799-.017-.507-.32-.975-.91-1.404-.418-.301-.839-.43-1.264-.384-.425.045-.793.281-1.102.708l-1.961-1.424c.696-.958 1.527-1.452 2.497-1.483.966-.027 1.958.325 2.976 1.065 1.229.892 1.912 1.882 2.046 2.97zM31.035 143.06l-.199.208c-1.232 1.29-1.364 2.397-.396 3.324.527.505 1.055.705 1.582.606.526-.101 1.097-.471 1.709-1.112l.222-.233c.613-.638.958-1.224 1.034-1.755.079-.53-.146-1.049-.675-1.554-.968-.927-2.06-.754-3.277.516m6.485 1.299c-.09 1.048-.711 2.173-1.862 3.375-1.125 1.175-2.213 1.832-3.264 1.97-1.05.137-1.974-.174-2.769-.936-.46-.44-.784-.907-.978-1.407a2.721 2.721 0 0 1-.153-1.489l-.077-.075-3.203 3.347-1.777-1.7 8.975-9.377 1.517 1.451-.74 1.007.091.087a2.886 2.886 0 0 1 1.62.047c.533.171 1.02.467 1.46.888.864.828 1.252 1.766 1.16 2.812M29.125 137.936l-1.604-1.888 1.874-1.594 1.604 1.89zM19.997 132.467c-1.845 1.064-3.487 1.409-4.925 1.035-1.437-.373-2.629-1.38-3.572-3.02-.52-.9-.834-1.8-.943-2.698a4.377 4.377 0 0 1 .414-2.517c.385-.782 1.029-1.432 1.932-1.953l1.335 2.319c-.696.4-1.114.938-1.256 1.614-.143.676-.007 1.372.404 2.087.562.976 1.27 1.534 2.126 1.676.856.143 1.828-.099 2.916-.726l.467-.27c2.25-1.296 2.821-2.909 1.71-4.837-.437-.757-.982-1.248-1.636-1.472-.654-.225-1.328-.135-2.023.264l-1.29-2.24c.913-.525 1.797-.758 2.652-.699.856.06 1.645.36 2.361.898.72.54 1.344 1.27 1.876 2.193 1.983 3.444 1.133 6.225-2.548 8.346M6.933 122.658l-.882-2.297 4.325-1.658-.046-.118c-1.071-.358-1.81-1.062-2.213-2.113-.348-.904-.375-1.71-.082-2.418.291-.708.98-1.27 2.063-1.687l5.918-2.27.88 2.296-5.43 2.084c-.547.211-.894.491-1.043.842-.147.351-.123.778.069 1.28.197.515.544.873 1.037 1.075.494.201 1.01.199 1.545-.007l5.096-1.954.88 2.295-12.117 4.65zM6.328 110.341l-.518-2.036 1.43-.567-.03-.122c-.572-.065-1.048-.215-1.43-.451-.382-.238-.636-.61-.766-1.12a2.59 2.59 0 0 1-.074-.945l2.227-.566.167.662c.2.777.554 1.285 1.065 1.526.512.241 1.197.252 2.055.033l4.419-1.122.606 2.384-9.151 2.324zM4.642 103.059l-.417-2.424 9.306-1.602.417 2.424-9.306 1.602zm-3.484.6-.419-2.423 2.195-.379.415 2.424-2.191.378zM12.49 96.194c-.49.786-1.187 1.213-2.096 1.28l-.215-.002-.174-2.382.126-.01c.417-.041.704-.251.861-.63.16-.377.218-.828.181-1.353-.036-.49-.132-.902-.288-1.24-.158-.336-.384-.493-.684-.471-.333.023-.572.22-.714.583-.14.364-.267.928-.378 1.693-.123.788-.259 1.435-.408 1.937-.15.504-.407.949-.776 1.336-.366.386-.878.604-1.535.653-.919.067-1.655-.267-2.207-1-.551-.733-.872-1.71-.961-2.928-.083-1.132.078-2.086.483-2.86.406-.774 1.001-1.19 1.79-1.248l.413-.011.174 2.38-.035.002c-.345.039-.595.207-.747.506-.15.298-.209.693-.174 1.183.036.489.131.873.282 1.149.153.276.348.406.587.388.3-.02.506-.2.627-.54.118-.34.223-.877.313-1.616.12-.813.251-1.477.395-1.991.14-.515.402-.972.78-1.371.38-.4.914-.626 1.606-.676 2.03-.15 3.15 1.216 3.361 4.092.096 1.313-.099 2.363-.588 3.147M12.166 86.513c-.49.37-1.1.544-1.83.522l-5.114-.15-.034 1.13-2.01-.06.036-1.184-2.643-.49.058-1.992 2.654.078.05-1.632 2.01.059-.049 1.632 4.864.142c.513.017.777-.234.792-.748l.027-.862 1.723.051c.065.205.124.462.174.77.051.305.072.59.065.854-.026.884-.285 1.511-.773 1.88" fill="#5D6B45"/>
        <g transform="translate(0 77.262)">
            <mask id="d" fill="#fff">
                <use xlink:href="#c"/>
            </mask>
            <path d="M3.52 3.227 3.764.781l9.395.938-.243 2.449-9.396-.94zM0 2.875.246.429 2.459.65l-.243 2.447L0 2.875z" fill="#5D6B45" mask="url(#d)"/>
        </g>
        <path d="m4.094 74.838.426-2.056 1.25.074.024-.122c-.794-.946-1.07-2.007-.827-3.178.195-.95.608-1.643 1.236-2.081.628-.438 1.51-.541 2.647-.307l6.206 1.283-.497 2.409-5.696-1.177c-.575-.119-1.018-.07-1.332.146-.313.217-.526.589-.633 1.116a1.808 1.808 0 0 0 .292 1.463c.308.437.742.712 1.305.83l5.345 1.104-.499 2.409-9.247-1.913zM12.055 59.315c-1.229-.437-2.026-.143-2.389.885-.209.585-.214 1.082-.015 1.49.197.407.595.754 1.192 1.042l1.212-3.417zm2.834 6.348c-1.006.436-2.304.373-3.895-.192-1.59-.564-2.639-1.333-3.144-2.306-.504-.973-.503-2.175.004-3.607.47-1.32 1.2-2.171 2.193-2.557.994-.383 2.28-.296 3.86.266l.54.19-2.076 5.855c.797.257 1.438.307 1.918.147.484-.159.846-.583 1.09-1.27.171-.485.175-.926.011-1.32-.164-.394-.494-.68-.992-.857l.811-2.284c1.117.396 1.826 1.053 2.128 1.973.303.921.243 1.974-.177 3.157-.508 1.433-1.266 2.367-2.271 2.805zM18.538 44.289c.298-.478.397-.923.302-1.336-.097-.411-.369-.757-.816-1.034-.446-.278-.871-.365-1.273-.264-.402.102-.752.394-1.048.871l-1.953 3.14 2.836 1.763 1.952-3.14zM10.5 46.712l3.45-5.551c.726-1.167 1.56-1.869 2.501-2.1.942-.234 1.93-.028 2.966.617 1.464.908 2.06 2.125 1.791 3.65l5.58.509L25.3 46.23l-5.05-.581-1.819 2.926 3.903 2.426-1.374 2.213-10.46-6.502zM28.964 37.775c-.086-.497-.376-.956-.87-1.376l-.217-.186c-1.39 1.632-1.718 2.758-.989 3.378.228.195.475.275.739.24.265-.033.529-.206.792-.516.45-.53.632-1.042.545-1.54m-1.308 4.545c-.687.215-1.414-.002-2.18-.654-.92-.783-1.253-1.718-.996-2.803.255-1.087.973-2.323 2.152-3.708l-.506-.43c-.32-.271-.626-.41-.919-.416-.294-.007-.607.186-.94.578-.356.42-.547.774-.57 1.06-.024.285.05.502.225.649l.204.175-1.536 1.805a2.754 2.754 0 0 1-.312-.243c-.602-.511-.859-1.188-.769-2.032.089-.843.51-1.708 1.262-2.592.837-.984 1.664-1.55 2.48-1.697.815-.145 1.602.102 2.36.746l3.171 2.698c.165.141.325.198.48.171a.663.663 0 0 0 .407-.241l.324-.384 1.314 1.117c-.104.417-.336.838-.7 1.266-.32.375-.666.616-1.043.728-.379.11-.756.084-1.134-.08l-.069.082a3.51 3.51 0 0 1-.07 1.508c-.132.477-.43.99-.895 1.537a3.7 3.7 0 0 1-1.74 1.16M34.38 34.64c-.605-.083-1.163-.387-1.666-.916l-3.534-3.7-.817.782-1.39-1.456.858-.817-1.536-2.208 1.44-1.376 1.836 1.923 1.18-1.129 1.39 1.453-1.182 1.13 3.36 3.518c.355.372.72.38 1.09.025l.623-.595 1.192 1.247c-.1.192-.236.416-.415.67-.18.254-.365.472-.557.653-.64.612-1.264.877-1.871.795M30.47 21.21l1.954-1.493 2.813 3.68.1-.077c.04-1.13.508-2.037 1.401-2.719.77-.59 1.536-.844 2.298-.763.762.08 1.496.582 2.2 1.505l3.849 5.033-1.954 1.495-3.533-4.621c-.355-.466-.724-.721-1.102-.762-.378-.042-.782.099-1.208.426-.44.336-.685.768-.739 1.298-.054.532.095 1.025.443 1.48l3.315 4.337-1.955 1.494L30.47 21.21zM63.758 13.134a2.378 2.378 0 0 1-1.088-.603 2.383 2.383 0 0 1-.647-1.084 2.363 2.363 0 0 1-.027-1.262 2.46 2.46 0 0 1 .6-1.098 2.347 2.347 0 0 1 1.081-.656 2.344 2.344 0 0 1 1.265-.018c.418.11.784.315 1.1.608.315.297.534.657.656 1.083.123.425.129.848.018 1.265-.11.417-.314.781-.611 1.09-.297.31-.658.527-1.084.648a2.39 2.39 0 0 1-1.263.027" fill="#5D6B45"/>
    </g>
</svg>
