<?xml version="1.0" encoding="UTF-8"?>
<svg width="166px" height="58px" viewBox="0 0 166 58" version="1.1" xmlns="http://www.w3.org/2000/svg" xmlns:xlink="http://www.w3.org/1999/xlink">
    <!-- Generator: Sketch 54.1 (76490) - https://sketchapp.com -->
    <title>Group 28</title>
    <desc>Created with Sketch.</desc>
    <defs>
        <polygon id="path-1" points="0.0272036735 0.104741176 12.1963588 0.104741176 12.1963588 14.1871071 0.0272036735 14.1871071"></polygon>
        <polygon id="path-3" points="0.00850326531 0.104741176 12.2799686 0.104741176 12.2799686 14.1869706 0.00850326531 14.1869706"></polygon>
        <polygon id="path-5" points="0 57.8952588 165.76218 57.8952588 165.76218 0.341176471 0 0.341176471"></polygon>
    </defs>
    <g id="Page-1" stroke="none" stroke-width="1" fill="none" fill-rule="evenodd">
        <g id="Dr-Rath_Home" transform="translate(-168.000000, -57.000000)">
            <g id="Group-28" transform="translate(168.000000, 57.000000)">
                <g id="Group-3" transform="translate(54.542857, 0.236435)">
                    <mask id="mask-2" fill="white">
                        <use xlink:href="#path-1"></use>
                    </mask>
                    <g id="Clip-2"></g>
                    <path d="M5.2047098,12.4832718 C6.82168531,12.4832718 8.05482816,12.0728365 8.90447714,11.2516247 C9.75378735,10.4304129 10.1850486,9.07560118 10.1985996,7.18718941 L10.1985996,7.14590706 C10.1985996,5.24384824 9.7737751,3.87880118 8.92480367,3.05076588 C8.07549347,2.22273059 6.83523633,1.80854235 5.2047098,1.80854235 L1.96398327,1.80854235 L1.96398327,12.4832718 L5.2047098,12.4832718 Z M0.0272036735,0.104707059 L5.2047098,0.104707059 C7.4470649,0.104707059 9.17278735,0.683001176 10.3822159,1.83958941 C11.5916445,2.99583647 12.1963588,4.76483647 12.1963588,7.14590706 C12.1963588,9.52731882 11.5916445,11.2963188 10.3822159,12.4525659 C9.17278735,13.6091541 7.4470649,14.1871071 5.2047098,14.1871071 L0.0272036735,14.1871071 L0.0272036735,0.104707059 Z" id="Fill-1" fill="white" mask="url(#mask-2)"></path>
                </g>
                <g id="Group-6" transform="translate(69.787755, 0.236435)">
                    <mask id="mask-4" fill="white">
                        <use xlink:href="#path-3"></use>
                    </mask>
                    <g id="Clip-5"></g>
                    <path d="M7.18376857,6.67392353 C7.94465837,6.67392353 8.54937265,6.44806471 8.99791143,5.99634706 C9.4464502,5.54462941 9.67071959,4.92198235 9.67071959,4.12840588 C9.67071959,3.38941765 9.46000122,2.81794706 9.03890327,2.41433529 C8.61712776,2.01072353 7.99920122,1.80840588 7.18376857,1.80840588 L1.94528286,1.80840588 L1.94528286,6.67392353 L7.18376857,6.67392353 Z M0.00850326531,0.104570588 L7.28574,0.104570588 C8.68522163,0.104570588 9.75914,0.467582353 10.5064788,1.19292353 C11.2538176,1.91860588 11.6274869,2.88993529 11.6274869,4.10793529 C11.6274869,5.06595882 11.3998298,5.89365294 10.9448543,6.5917 C10.4892012,7.28974706 9.86077265,7.78957059 9.0592298,8.09014706 L12.2799686,14.1869706 L10.1192584,14.1869706 L7.08179714,8.37741765 L1.94528286,8.37741765 L1.94528286,14.1869706 L0.00850326531,14.1869706 L0.00850326531,0.104570588 Z" id="Fill-4" fill="white" mask="url(#mask-4)"></path>
                </g>
                <mask id="mask-6" fill="white">
                    <use xlink:href="#path-5"></use>
                </mask>
                <g id="Clip-8"></g>
                <polygon id="Fill-7" fill="white" mask="url(#mask-6)" points="85.2674245 14.4235765 87.3058367 14.4235765 87.3058367 12.2066118 85.2674245 12.2066118"></polygon>
                <polygon id="Fill-9" fill="white" mask="url(#mask-6)" points="137.388376 14.4235765 139.426788 14.4235765 139.426788 12.2066118 137.388376 12.2066118"></polygon>
                <path d="M92.3815069,0.34104 L95.2556784,0.34104 L98.5987151,9.94822824 C98.7210131,10.3044165 98.84636,10.71144 98.9757722,11.16964 C99.1048457,11.6285224 99.1898784,11.9260282 99.2305314,12.0624988 L99.3121763,12.0624988 C99.3528294,11.9123812 99.4375233,11.5978165 99.5669355,11.1184635 C99.696009,10.6397929 99.8145804,10.2494871 99.9236661,9.94822824 L103.286691,0.34104 L106.140536,0.34104 L106.140536,14.42344 L104.204095,14.42344 L104.204095,5.12433412 L104.245087,2.49659294 L104.102462,2.49659294 C104.088911,2.59280471 104.047919,2.78761647 103.979825,3.08171059 C103.911731,3.37614588 103.837201,3.63271059 103.755895,3.85140471 L99.964658,14.42344 L98.3541192,14.42344 L94.623862,3.85140471 C94.5557682,3.66034588 94.4842865,3.41026353 94.4097559,3.10218118 C94.3352253,2.79409882 94.2908457,2.59280471 94.2772947,2.49659294 L94.1549967,2.49659294 L94.1956498,5.12433412 L94.1956498,14.42344 L92.3815069,14.42344 L92.3815069,0.34104 Z" id="Fill-10" fill="white" mask="url(#mask-6)"></path>
                <polygon id="Fill-11" fill="white" mask="url(#mask-6)" points="109.870454 0.34104 120.633352 0.34104 120.633352 2.04487529 111.807233 2.04487529 111.807233 6.37645176 119.736274 6.37645176 119.736274 8.08062824 111.807233 8.08062824 111.807233 12.7196047 120.75565 12.7196047 120.75565 14.42344 109.870454 14.42344"></polygon>
                <path d="M129.153522,12.7197071 C130.770498,12.7197071 132.00364,12.3092718 132.853289,11.48806 C133.7026,10.6668482 134.133861,9.31203647 134.147412,7.42362471 L134.147412,7.38234235 C134.147412,5.48028353 133.722587,4.11523647 132.873616,3.28720118 C132.024306,2.45916588 130.784049,2.04497765 129.153522,2.04497765 L125.912796,2.04497765 L125.912796,12.7197071 L129.153522,12.7197071 Z M123.976016,0.341142353 L129.153522,0.341142353 C131.395877,0.341142353 133.1216,0.919436471 134.331028,2.07602471 C135.540457,3.23227176 136.145171,5.00127176 136.145171,7.38234235 C136.145171,9.76375412 135.540457,11.5327541 134.331028,12.6890012 C133.1216,13.8455894 131.395877,14.4235424 129.153522,14.4235424 L123.976016,14.4235424 L123.976016,0.341142353 Z" id="Fill-12" fill="white" mask="url(#mask-6)"></path>
                <path d="M53.8160143,29.1181494 C53.8160143,26.6821494 54.4071776,24.8585612 55.5891653,23.6473847 C56.7718306,22.4362082 58.4362347,21.83062 60.5833939,21.83062 C61.7657204,21.83062 62.828798,22.0325965 63.7736429,22.4362082 C64.7178102,22.8401612 65.4654878,23.4556435 66.0156592,24.2836788 C66.5661694,25.1120553 66.8412551,26.1209141 66.8412551,27.31162 L63.8037939,27.31162 C63.8037939,26.3948788 63.5114306,25.6726082 62.9277204,25.1458318 C62.3429939,24.6190553 61.5821041,24.3553259 60.6443735,24.3553259 C59.3671898,24.3553259 58.4155694,24.7388082 57.7905286,25.5050906 C57.1658265,26.2717141 56.8531367,27.3733729 56.8531367,28.8104082 L56.8531367,29.4258906 C56.8531367,32.3958318 58.1167694,33.8806318 60.6443735,33.8806318 C61.6363082,33.8806318 62.4280265,33.6206553 63.0191898,33.1007024 C63.6103531,32.5804082 63.9057653,31.8622318 63.9057653,30.9448082 L66.8412551,30.9448082 C66.8412551,32.1495024 66.5692184,33.1590435 66.0258224,33.9727494 C65.4824265,34.7874788 64.7415245,35.3964788 63.8037939,35.8000906 C62.866402,36.2037024 61.7928224,36.4053376 60.5833939,36.4053376 C56.0715816,36.4053376 53.8160143,33.9765024 53.8160143,29.1181494" id="Fill-13" fill="white" mask="url(#mask-6)"></path>
                <polygon id="Fill-14" fill="white" mask="url(#mask-6)" points="69.5518657 22.0767106 72.507682 22.0767106 72.507682 27.6604047 78.5819269 27.6604047 78.5819269 22.0767106 81.5377433 22.0767106 81.5377433 36.1591106 78.5819269 36.1591106 78.5819269 30.2267341 72.507682 30.2267341 72.507682 36.1591106 69.5518657 36.1591106"></polygon>
                <path d="M91.9329004,28.4201365 C92.571831,28.4201365 93.0606841,28.2492071 93.4004759,27.9070071 C93.7402678,27.5648071 93.9103331,27.0926188 93.9103331,26.4904424 C93.9103331,25.8882659 93.7402678,25.4229012 93.4004759,25.0946894 C93.0606841,24.7661365 92.571831,24.6020306 91.9329004,24.6020306 L87.733778,24.6020306 L87.733778,28.4201365 L91.9329004,28.4201365 Z M84.7783004,22.0766424 L92.1978229,22.0766424 C93.7605943,22.0766424 94.9361453,22.4635365 95.7241371,23.2369835 C96.5124678,24.0100894 96.9068024,25.0946894 96.9068024,26.4904424 C96.9068024,28.4610776 96.091031,29.7749482 94.4605045,30.4317129 L97.3143494,36.1593835 L94.1139371,36.1593835 L91.6476514,30.9039012 L87.733778,30.9039012 L87.733778,36.1593835 L84.7783004,36.1593835 L84.7783004,22.0766424 Z" id="Fill-15" fill="white" mask="url(#mask-6)"></path>
                <polygon id="Fill-16" fill="white" mask="url(#mask-6)" points="100.004498 36.1592471 102.960314 36.1592471 102.960314 22.0768471 100.004498 22.0768471"></polygon>
                <path d="M108.596421,35.9027165 C107.706119,35.5676812 106.996384,35.0712694 106.466539,34.4145047 C105.936356,33.7573988 105.671433,32.9641635 105.671433,32.0330929 L105.69176,31.5813753 L108.688229,31.5813753 L108.667902,31.9099282 C108.667902,32.5121047 108.932825,32.9911165 109.463009,33.3469635 C109.992853,33.7031518 110.733417,33.8805635 111.684698,33.8805635 C112.690184,33.8805635 113.417196,33.7471635 113.865735,33.4800224 C114.314274,33.2135635 114.538204,32.8539635 114.538204,32.4025871 C114.538204,32.0057988 114.392192,31.6738341 114.100168,31.4070341 C113.807804,31.1402341 113.440911,30.9280224 112.999486,30.77074 C112.557384,30.6134576 111.949621,30.4251282 111.174841,30.2060929 C110.07416,29.8915282 109.183858,29.5902694 108.504613,29.3026576 C107.825368,29.0153871 107.24098,28.5878929 106.751788,28.0198341 C106.262596,27.4517753 106.018,26.7028929 106.018,25.7721635 C106.018,24.4855871 106.534294,23.5070929 107.567221,22.83634 C108.599809,22.1659282 109.972527,21.8305518 111.684698,21.8305518 C113.301674,21.8305518 114.623237,22.1765047 115.649049,22.8673871 C116.6752,23.5582694 117.188107,24.5951047 117.188107,25.9772106 L117.188107,26.22354 L114.252956,26.22354 L114.252956,26.0389635 C114.252956,25.5186694 114.018523,25.1082341 113.549658,24.8073165 C113.080792,24.5063988 112.445588,24.3552576 111.643707,24.3552576 C110.78796,24.3552576 110.131751,24.47194 109.676776,24.7046224 C109.221462,24.9373047 108.994143,25.2586929 108.994143,25.6694694 C108.994143,25.9843753 109.129653,26.2545871 109.40169,26.4801047 C109.673388,26.7059635 110.01318,26.8908812 110.421066,27.0345165 C110.828613,27.1781518 111.405886,27.3524929 112.153564,27.5578812 C113.267458,27.85914 114.181474,28.1566459 114.895274,28.45074 C115.608396,28.7451753 116.223274,29.1798341 116.739907,29.7543753 C117.2562,30.3292576 117.514347,31.0818929 117.514347,32.0126224 C117.514347,33.5182341 116.980776,34.6267165 115.914311,35.3380694 C114.847168,36.0501047 113.389756,36.4056106 111.541735,36.4056106 C110.468156,36.4056106 109.486384,36.2377518 108.596421,35.9027165" id="Fill-17" fill="white" mask="url(#mask-6)"></path>
                <polygon id="Fill-18" fill="white" mask="url(#mask-6)" points="123.670271 24.6428694 119.348851 24.6428694 119.348851 22.0768812 130.947169 22.0768812 130.947169 24.6428694 126.626087 24.6428694 126.626087 36.1592812 123.670271 36.1592812"></polygon>
                <polygon id="Fill-19" fill="white" mask="url(#mask-6)" points="133.250233 36.1592471 136.206049 36.1592471 136.206049 22.0768471 133.250233 22.0768471"></polygon>
                <path d="M139.426618,22.0767106 L142.30079,22.0767106 L147.6819,29.7337341 C147.790647,29.8848753 147.940047,30.12404 148.130439,30.4525929 C148.320831,30.7808047 148.44279,30.99984 148.497333,31.1093576 L148.599304,31.0476047 C148.599304,30.9384282 148.589141,30.7603341 148.568814,30.5136635 C148.548488,30.2676753 148.538324,30.04864 148.538324,29.85724 L148.538324,22.0767106 L151.412496,22.0767106 L151.412496,36.1591106 L148.538324,36.1591106 L143.136549,28.4403341 C142.973598,28.2083341 142.810308,27.9446047 142.647357,27.6501694 C142.484067,27.3564165 142.382435,27.1677459 142.341443,27.0858635 L142.23981,27.1472753 C142.23981,27.2434871 142.249635,27.4144165 142.2703,27.6604047 C142.290627,27.9070753 142.30079,28.1465812 142.30079,28.3792635 L142.30079,36.1591106 L139.426618,36.1591106 L139.426618,22.0767106 Z" id="Fill-20" fill="white" mask="url(#mask-6)"></path>
                <polygon id="Fill-21" fill="white" mask="url(#mask-6)" points="154.653019 22.0767106 165.640187 22.0767106 165.640187 24.6017576 157.608836 24.6017576 157.608836 27.7013459 164.743109 27.7013459 164.743109 30.2267341 157.608836 30.2267341 157.608836 33.6344047 165.762146 33.6344047 165.762146 36.1591106 154.653019 36.1591106"></polygon>
                <path d="M61.4801327,50.1561482 C62.1190633,50.1561482 62.6079163,49.9852188 62.9477082,49.6430188 C63.2875,49.3008188 63.4575653,48.8286306 63.4575653,48.2264541 C63.4575653,47.6242776 63.2875,47.1589129 62.9477082,46.8307012 C62.6079163,46.5021482 62.1190633,46.3380424 61.4801327,46.3380424 L57.2810102,46.3380424 L57.2810102,50.1561482 L61.4801327,50.1561482 Z M54.3255327,43.8126541 L61.7450551,43.8126541 C63.3078265,43.8126541 64.4833776,44.1995482 65.2713694,44.9729953 C66.0597,45.7461012 66.4540347,46.8307012 66.4540347,48.2264541 C66.4540347,50.1970894 65.6382633,51.51096 64.0077367,52.1677247 L66.8615816,57.8953953 L63.6611694,57.8953953 L61.1948837,52.6399129 L57.2810102,52.6399129 L57.2810102,57.8953953 L54.3255327,57.8953953 L54.3255327,43.8126541 Z" id="Fill-22" fill="white" mask="url(#mask-6)"></path>
                <path d="M77.7053114,52.7219659 L76.3803604,49.1501894 C76.2716135,48.8625776 76.1157767,48.3839071 75.9114951,47.7131541 C75.707891,47.0427424 75.5717033,46.5981894 75.5039482,46.3788129 L75.4019767,46.3788129 C75.3338829,46.5981894 75.1983727,47.0427424 74.9944298,47.7131541 C74.7904869,48.3839071 74.6343114,48.8625776 74.5255645,49.1501894 L73.2006135,52.7219659 L77.7053114,52.7219659 Z M73.6898053,43.8128247 L77.3997359,43.8128247 L82.862491,57.8952247 L79.642091,57.8952247 L78.6433808,55.2060718 L72.2832094,55.2060718 L71.2844992,57.8952247 L68.2267114,57.8952247 L73.6898053,43.8128247 Z" id="Fill-23" fill="white" mask="url(#mask-6)"></path>
                <polygon id="Fill-24" fill="white" mask="url(#mask-6)" points="86.6537616 46.3788812 82.3323412 46.3788812 82.3323412 43.8128929 93.9306596 43.8128929 93.9306596 46.3788812 89.609578 46.3788812 89.609578 57.8952929 86.6537616 57.8952929"></polygon>
                <polygon id="Fill-25" fill="white" mask="url(#mask-6)" points="96.2340959 43.8127224 99.1899122 43.8127224 99.1899122 49.3964165 105.264157 49.3964165 105.264157 43.8127224 108.219973 43.8127224 108.219973 57.8951224 105.264157 57.8951224 105.264157 51.9627459 99.1899122 51.9627459 99.1899122 57.8951224 96.2340959 57.8951224"></polygon>
                <path d="M20.1736751,35.7914247 L9.60455673,35.7914247 C6.29167102,35.7914247 3.59705061,33.0777071 3.59705061,29.7423659 C3.59705061,26.4060012 6.29167102,23.6926247 9.60455673,23.6926247 L14.6922873,23.6926247 L14.6922873,23.6922835 C19.1282139,23.6922835 22.7368506,20.0580718 22.7368506,15.5907071 L22.7368506,14.8970953 L22.7368506,13.4112718 L22.7368506,12.8630012 C22.7368506,8.11280118 24.847422,6.26260118 30.2630873,6.26260118 L30.2630873,2.63998941 C22.8821853,2.63998941 19.140071,6.07938941 19.140071,12.8630012 L19.140071,13.4112718 L19.140071,14.8970953 L19.140071,15.5907071 C19.140071,18.0604835 17.145022,20.0700129 14.6922873,20.0700129 L9.60455673,20.0700129 C4.30881796,20.0700129 -6.7755102e-05,24.4090953 -6.7755102e-05,29.7423659 C-6.7755102e-05,35.0752953 4.30881796,39.4140365 9.60455673,39.4140365 L20.1736751,39.4140365 L20.1736751,35.7914247 Z" id="Fill-26" fill="white" mask="url(#mask-6)"></path>
                <path d="M36.6899976,20.0699788 L26.1202016,20.0699788 L26.1202016,23.6925906 L36.6899976,23.6925906 C40.0022057,23.6925906 42.6971649,26.4059671 42.6971649,29.7423318 C42.6971649,33.0776729 40.0022057,35.7913906 36.6899976,35.7913906 L31.6015894,35.7913906 L31.6015894,35.7917318 C27.1660016,35.7917318 23.5570261,39.4259435 23.5570261,43.8933082 L23.5570261,46.0727435 L23.5570261,46.6210141 C23.5570261,51.3708729 21.4471322,53.2217553 16.0311282,53.2217553 L16.0311282,56.8443671 C23.4120302,56.8443671 27.1541445,53.4046259 27.1541445,46.6210141 L27.1541445,46.0727435 L27.1541445,44.58692 L27.1541445,43.8933082 C27.1541445,41.4235318 29.1491935,39.4140024 31.6015894,39.4140024 L36.6899976,39.4140024 C41.9853976,39.4140024 46.2942833,35.0752612 46.2942833,29.7423318 C46.2942833,24.4090612 41.9853976,20.0699788 36.6899976,20.0699788" id="Fill-27" fill="white" mask="url(#mask-6)"></path>
            </g>
        </g>
    </g>
</svg>