<svg width="496" height="573" xmlns="http://www.w3.org/2000/svg" xmlns:xlink="http://www.w3.org/1999/xlink">
    <defs>
        <path id="a" d="M.177.323h324.674v387.676H.177z"/>
    </defs>
    <g fill="none" fill-rule="evenodd">
        <path d="M215.987 347.074h-113.16c-35.47 0-64.315-28.407-64.315-63.337 0-34.917 28.845-63.336 64.315-63.336h54.468c47.498 0 86.138-38.04 86.138-84.815v-28.559c0-49.733 22.581-69.1 80.567-69.1V0c-79.013 0-119.079 36.017-119.079 107.027V135.586c0 25.853-21.36 46.889-47.626 46.889h-54.468C46.124 182.475 0 227.898 0 283.737 0 339.577 46.124 385 102.827 385h113.16v-37.926z" fill="#5D6B45"/>
        <g transform="translate(171 185)">
            <mask id="b" fill="#fff">
                <use xlink:href="#a"/>
            </mask>
            <path d="M221.807.323H108.426v38.19h113.381c35.543 0 64.46 28.606 64.46 63.78 0 35.16-28.917 63.778-64.46 63.778h-54.58c-47.584 0-86.304 38.306-86.304 85.408v28.745c0 50.081-22.64 69.584-80.746 69.584v38.19c79.19 0 119.338-36.268 119.338-107.774V251.479c0-26.033 21.405-47.217 47.711-47.217h54.581c56.82 0 103.052-45.74 103.052-101.97S278.627.323 221.807.323" fill="#FFF" mask="url(#b)"/>
        </g>
    </g>
</svg>
