<svg width="166" height="58" xmlns="http://www.w3.org/2000/svg" xmlns:xlink="http://www.w3.org/1999/xlink">
    <defs>
        <path id="a" d="M.027.105h12.17v14.082H.026z"/>
        <path id="c" d="M.009.105H12.28v14.082H.009z"/>
        <path id="e" d="M0 57.895h165.762V.341H0z"/>
    </defs>
    <g fill="none" fill-rule="evenodd">
        <g transform="translate(54.543 .236)">
            <mask id="b" fill="#fff">
                <use xlink:href="#a"/>
            </mask>
            <path d="M5.205 12.483c1.617 0 2.85-.41 3.7-1.231.849-.822 1.28-2.176 1.294-4.065v-.041c0-1.902-.425-3.267-1.274-4.095-.85-.828-2.09-1.242-3.72-1.242H1.964v10.674h3.24zM.027.105h5.178c2.242 0 3.968.578 5.177 1.735 1.21 1.156 1.814 2.925 1.814 5.306 0 2.381-.604 4.15-1.814 5.307-1.21 1.156-2.935 1.734-5.177 1.734H.027V.105z" fill="#3B3B3B" mask="url(#b)"/>
        </g>
        <g transform="translate(69.788 .236)">
            <mask id="d" fill="#fff">
                <use xlink:href="#c"/>
            </mask>
            <path d="M7.184 6.674c.76 0 1.365-.226 1.814-.678.448-.451.673-1.074.673-1.868 0-.739-.211-1.31-.632-1.714-.422-.403-1.04-.606-1.855-.606H1.945v4.866h5.239zM.009.104h7.277c1.4 0 2.473.364 3.22 1.089.748.726 1.121 1.697 1.121 2.915 0 .958-.227 1.786-.682 2.484A3.772 3.772 0 0 1 9.059 8.09l3.221 6.097h-2.16l-3.038-5.81H1.945v5.81H.01V.105z" fill="#3B3B3B" mask="url(#d)"/>
        </g>
        <mask id="f" fill="#fff">
            <use xlink:href="#e"/>
        </mask>
        <path fill="#3B3B3B" mask="url(#f)" d="M85.267 14.424h2.039v-2.217h-2.039zM137.388 14.424h2.039v-2.217h-2.039zM92.382.341h2.874l3.343 9.607c.122.356.247.763.377 1.222.129.459.214.756.255.892h.081l.255-.944c.129-.478.248-.869.357-1.17l3.363-9.607h2.854v14.082h-1.937V5.124l.041-2.627h-.143a8.702 8.702 0 0 1-.122.585 6.309 6.309 0 0 1-.224.77l-3.791 10.571h-1.61L94.623 3.851a7.705 7.705 0 0 1-.214-.749 8.327 8.327 0 0 1-.133-.605h-.122l.04 2.627v9.3h-1.813V.34zM109.87.341h10.763v1.704h-8.826v4.331h7.93v1.705h-7.93v4.639h8.949v1.703H109.87zM129.154 12.72c1.616 0 2.85-.41 3.7-1.232.849-.821 1.28-2.176 1.293-4.064v-.042c0-1.902-.424-3.267-1.273-4.095-.85-.828-2.09-1.242-3.72-1.242h-3.241V12.72h3.24zM123.976.34h5.178c2.242 0 3.968.578 5.177 1.735 1.21 1.156 1.814 2.925 1.814 5.306 0 2.382-.605 4.15-1.814 5.307-1.21 1.157-2.935 1.735-5.177 1.735h-5.178V.34zM53.816 29.118c0-2.436.591-4.26 1.773-5.47 1.183-1.212 2.847-1.817 4.994-1.817 1.183 0 2.246.202 3.19.605a4.977 4.977 0 0 1 2.243 1.848c.55.828.825 1.837.825 3.028h-3.037c0-.917-.293-1.64-.876-2.166-.585-.527-1.346-.79-2.284-.79-1.277 0-2.228.383-2.853 1.15-.625.766-.938 1.867-.938 3.304v.616c0 2.97 1.264 4.455 3.791 4.455.992 0 1.784-.26 2.375-.78s.887-1.239.887-2.156h2.935c0 1.205-.272 2.214-.815 3.028-.544.814-1.284 1.423-2.222 1.827-.938.404-2.011.605-3.22.605-4.512 0-6.768-2.428-6.768-7.287M69.552 22.077h2.956v5.583h6.074v-5.583h2.956v14.082h-2.956v-5.932h-6.074v5.932h-2.956zM91.933 28.42c.639 0 1.128-.17 1.467-.513.34-.342.51-.814.51-1.417 0-.602-.17-1.067-.51-1.395-.34-.329-.828-.493-1.467-.493h-4.2v3.818h4.2zm-7.155-6.343h7.42c1.563 0 2.738.387 3.526 1.16.788.773 1.183 1.858 1.183 3.253 0 1.971-.816 3.285-2.446 3.942l2.853 5.727h-3.2l-2.466-5.255h-3.914v5.255h-2.956V22.077zM100.004 36.16h2.956V22.076h-2.956zM108.596 35.903c-.89-.335-1.6-.832-2.13-1.488-.53-.658-.795-1.45-.795-2.382l.02-.452h2.997l-.02.329c0 .602.265 1.081.795 1.437.53.356 1.27.534 2.222.534 1.005 0 1.732-.134 2.18-.401.45-.266.673-.626.673-1.077 0-.397-.146-.73-.438-.996a3.206 3.206 0 0 0-1.1-.636 30.37 30.37 0 0 0-1.825-.565c-1.1-.314-1.991-.616-2.67-.903a4.705 4.705 0 0 1-1.753-1.283c-.49-.568-.734-1.317-.734-2.248 0-1.286.516-2.265 1.55-2.936 1.032-.67 2.405-1.005 4.117-1.005 1.617 0 2.938.346 3.964 1.036 1.026.691 1.54 1.728 1.54 3.11v.247h-2.936v-.185c0-.52-.234-.93-.703-1.232-.47-.3-1.104-.452-1.906-.452-.856 0-1.512.117-1.967.35-.456.232-.683.554-.683.964 0 .315.136.586.408.811.271.226.611.41 1.02.555.407.143.984.317 1.732.523 1.113.301 2.027.599 2.741.893.713.294 1.328.729 1.845 1.303.516.575.774 1.328.774 2.259 0 1.505-.533 2.614-1.6 3.325-1.067.712-2.524 1.068-4.372 1.068-1.074 0-2.056-.168-2.946-.503M123.67 24.643h-4.321v-2.566h11.598v2.566h-4.32v11.516h-2.957zM133.25 36.16h2.956V22.076h-2.956zM139.427 22.077h2.874l5.38 7.657c.11.15.259.39.45.719.19.328.312.547.366.656l.102-.061c0-.11-.01-.288-.03-.534a8.07 8.07 0 0 1-.03-.657v-7.78h2.873v14.082h-2.874l-5.401-7.719a8.75 8.75 0 0 1-.49-.79 19.28 19.28 0 0 1-.306-.564l-.101.061c0 .096.01.267.03.513.02.247.03.487.03.72v7.78h-2.873V22.076zM154.653 22.077h10.987v2.525h-8.031v3.1h7.134v2.525h-7.134v3.407h8.153v2.525h-11.109zM61.48 50.156c.64 0 1.128-.17 1.468-.513.34-.342.51-.814.51-1.417 0-.602-.17-1.067-.51-1.395-.34-.329-.829-.493-1.468-.493h-4.199v3.818h4.2zm-7.154-6.343h7.42c1.562 0 2.737.387 3.525 1.16.789.773 1.183 1.858 1.183 3.253 0 1.971-.816 3.285-2.446 3.942l2.854 5.727h-3.2l-2.467-5.255H57.28v5.255h-2.955V43.813zM77.705 52.722 76.38 49.15a26.15 26.15 0 0 1-.469-1.437c-.203-.67-.34-1.115-.407-1.334h-.102l-.408 1.334c-.204.67-.36 1.15-.468 1.437L73.2 52.722h4.504zm-4.015-8.91h3.71l5.462 14.083h-3.22l-.999-2.689h-6.36l-.999 2.69h-3.057l5.463-14.083zM86.654 46.379h-4.322v-2.566h11.599v2.566H89.61v11.516h-2.956zM96.234 43.813h2.956v5.583h6.074v-5.583h2.956v14.082h-2.956v-5.932H99.19v5.932h-2.956zM20.174 35.791H9.604c-3.312 0-6.007-2.713-6.007-6.049 0-3.336 2.695-6.05 6.008-6.05h5.087c4.436 0 8.045-3.634 8.045-8.101V12.863c0-4.75 2.11-6.6 7.526-6.6V2.64c-7.38 0-11.123 3.44-11.123 10.223V15.591c0 2.47-1.995 4.479-4.448 4.479H9.605C4.309 20.07 0 24.41 0 29.742c0 5.333 4.309 9.672 9.605 9.672h10.569v-3.623zM36.69 20.07H26.12v3.623h10.57c3.312 0 6.007 2.713 6.007 6.05 0 3.335-2.695 6.048-6.007 6.048h-5.088c-4.436 0-8.045 3.635-8.045 8.102v2.728c0 4.75-2.11 6.6-7.526 6.6v3.623c7.381 0 11.123-3.44 11.123-10.223V43.893c0-2.47 1.995-4.479 4.448-4.479h5.088c5.295 0 9.604-4.339 9.604-9.672s-4.309-9.672-9.604-9.672"/>
    </g>
</svg>
