<svg width="542" height="621" xmlns="http://www.w3.org/2000/svg" xmlns:xlink="http://www.w3.org/1999/xlink">
    <defs>
        <path id="a" d="M.194.352h354.644v422.647H.194z"/>
    </defs>
    <g fill="none" fill-rule="evenodd">
        <path d="M235.986 378.626H112.348c-38.754 0-70.27-30.989-70.27-69.094 0-38.092 31.516-69.095 70.27-69.095h59.512c51.895 0 94.113-41.498 94.113-92.525V116.758c0-54.256 24.672-75.384 88.027-75.384V0c-86.33 0-130.104 39.291-130.104 116.757V147.912c0 28.203-23.34 51.152-52.036 51.152h-59.512C50.395 199.064 0 248.616 0 309.532 0 370.448 50.395 420 112.348 420h123.638v-41.374z" fill="#FFF"/>
        <g transform="translate(187 198)">
            <mask id="b" fill="#fff">
                <use xlink:href="#a"/>
            </mask>
            <path d="M242.282.352H118.435v41.636h123.847c38.823 0 70.41 31.185 70.41 69.532 0 38.333-31.587 69.532-70.41 69.532h-59.62c-51.975 0-94.269 41.76-94.269 93.112V305.5c0 54.6-24.73 75.862-88.2 75.862v41.636c86.5 0 130.354-39.54 130.354-117.497v-31.338c0-28.382 23.38-51.476 52.116-51.476h59.619c62.064 0 112.564-49.866 112.564-111.168 0-61.302-50.5-111.168-112.564-111.168" fill="#FFF" mask="url(#b)"/>
        </g>
    </g>
</svg>
